<?xml version="1.0" encoding="utf-8"?>
<!-- Generator: Adobe Illustrator 30.2.1, SVG Export Plug-In . SVG Version: 9.03 Build 0)  -->
<svg version="1.1" id="Layer_1" xmlns="http://www.w3.org/2000/svg" xmlns:xlink="http://www.w3.org/1999/xlink" x="0px" y="0px"
viewBox="0 0 864 864" style="enable-background:new 0 0 864 864;" xml:space="preserve">
<style type="text/css">
.st0{fill:#441C2D;}
</style>
<g>
<path class="st0" d="M620.42,330.59c1.18,4.75,24.08,17.99,28.24,20.23c65.19,35.09,131.54,92.51,147.66,170.29
c15.85,76.51-62,165.4-124.39,210.83c-26.92,19.6-85.37,31.44-121.36,32.86c-136.82,5.37-198.83-86.3-285.21-188.79
c-75.13-89.15-137.06-182.14-186.12-288.09c-4.05-8.75-8.03-17.54-11.93-26.35c-8.89-20.08,19.54-35.21,31.18-16.59
c12.95,20.72,26.39,41.13,40.58,61.06c44.4,62.39,95.73,119.28,148.58,174.49c43.02,44.95,83.95,84.39,134.85,120.92
c64.21,46.08,171.04,79.27,221.27,6.66c56.62-81.85,39.65-136.77-26.54-197.97c-23.77-21.98-69.25-40-81.13-67.9
c-3.37-7.93,0.01-17.19,7.44-21.55c34.92-20.51,64.66-48.11,49.31-94.86c-19.29-58.75-106.72-55.54-192.14-27.72
C288,234.8,217.08,322.08,185.03,298.23c-1.53-1.14-3.49-2.64-4.79-5.44c-15.77-33.91,112.13-158.53,263.51-187.93
c11.46-2.23,157.6-27.42,233.65,47c17.16,16.79,26.39,35.23,29.16,53.8c8.46,56.56-49.18,100.86-54.94,105.2"/>
</g>
<g>
</g>
<g>
</g>
<g>
</g>
<g>
</g>
<g>
</g>
<g>
</g>
</svg>