<?xml version="1.0" encoding="utf-8"?>
<!-- Generator: Adobe Illustrator 30.2.1, SVG Export Plug-In . SVG Version: 9.03 Build 0)  -->
<svg version="1.1" id="Layer_1" xmlns="http://www.w3.org/2000/svg" xmlns:xlink="http://www.w3.org/1999/xlink" x="0px" y="0px"
viewBox="0 0 730.68 222.73" style="enable-background:new 0 0 730.68 222.73;" xml:space="preserve">
<style type="text/css">
.st0{fill:#441C2D;}
</style>
<g>
<path class="st0" d="M87.49,132.65c-21.27,44.48-75.14,72.1-81.49,1.66c-3.04-32.6,3.04-98.62,11.05-116.3
c2.21-4.7,6.08-8.01,11.6-6.91c4.7,1.1,7.46,4.42,8.56,8.84c1.1,4.97,0.83,9.67,0.55,14.64c-0.83,9.39-6.35,75.14-3.87,102.49
c3.59,41.16,31.22,7.73,47.51-7.18C85.55,126.02,89.97,127.4,87.49,132.65z"/>
<path class="st0" d="M197.7,155.85c-17.13,7.46-28.73-1.38-38.67-16.3c-2.21-3.32-3.87-6.35-5.8-9.95
c-9.12,14.64-24.59,32.32-39.78,40.33c-41.16,20.72-56.35-59.12,4.97-77.35c25.97-7.73,25.69,5.25,40.61,8.01
c4.14,0.83,5.52,3.32,6.63,6.91c12.43,35.36,16.85,40.06,48.62,22.93c10.22-5.52,12.71-3.32,12.15,1.93
C224.78,139.56,208.2,151.16,197.7,155.85z M145.77,111.93c-11.05-12.71-37.85,2.21-43.92,21.27c-4.7,15.47,1.38,19.06,13.26,9.67
C126.71,134.03,136.1,122.71,145.77,111.93z"/>
</g>
<g>
<path class="st0" d="M474.78,128.86c9.12-4.97,9.12,3.04,5.25,8.29c-13.54,18.23-51.38,45.3-75.14,39.23
c-16.58-4.14-25.69-20.17-23.48-36.74c8.01-58.29,81.49-58.01,63.54-22.38c-8.29,16.57-23.48,29.01-42.27,31.77
C405.99,174.16,459.31,137.14,474.78,128.86z M428.64,109.79c-13.81-0.83-25.69,11.05-27.35,24.31
C411.79,130.79,426.71,121.67,428.64,109.79z"/>
<path class="st0" d="M557.37,132.72c-21.27,44.48-75.14,72.1-81.49,1.66c-3.04-32.6,3.04-98.62,11.05-116.3
c2.21-4.7,6.08-8.01,11.6-6.91c4.7,1.1,7.46,4.42,8.56,8.84c1.1,4.97,0.83,9.67,0.55,14.64c-0.83,9.39-6.35,75.14-3.87,102.49
c3.59,41.16,31.22,7.73,47.51-7.18C555.44,126.09,559.86,127.47,557.37,132.72z"/>
<path class="st0" d="M633.06,132.72c-21.27,44.48-75.14,72.1-81.49,1.66c-3.04-32.6,3.04-98.62,11.05-116.3
c2.21-4.7,6.08-8.01,11.6-6.91c4.7,1.1,7.46,4.42,8.56,8.84c1.1,4.97,0.83,9.67,0.55,14.64c-0.83,9.39-6.35,75.14-3.87,102.49
c3.59,41.16,31.22,7.73,47.51-7.18C631.12,126.09,635.54,127.47,633.06,132.72z"/>
<path class="st0" d="M717.31,128.86c9.12-4.97,9.12,3.04,5.25,8.29c-13.54,18.23-51.38,45.3-75.14,39.23
c-16.58-4.14-25.69-20.17-23.48-36.74c8.01-58.29,81.49-58.01,63.54-22.38c-8.29,16.57-23.48,29.01-42.27,31.77
C648.52,174.16,701.84,137.14,717.31,128.86z M671.17,109.79c-13.81-0.83-25.69,11.05-27.35,24.31
C654.32,130.79,669.24,121.67,671.17,109.79z"/>
</g>
<g>
<path class="st0" d="M341.1,67.38c0.31,1.23,6.26,4.67,7.34,5.26c16.94,9.12,34.18,24.04,38.36,44.24
c4.12,19.88-16.11,42.97-32.32,54.77c-6.99,5.09-22.18,8.17-31.53,8.54c-35.55,1.4-51.66-22.42-74.1-49.05
c-19.52-23.16-35.61-47.32-48.36-74.85c-1.05-2.27-2.09-4.56-3.1-6.85c-2.31-5.22,5.08-9.15,8.1-4.31
c3.37,5.38,6.86,10.69,10.54,15.86c11.54,16.21,24.87,30.99,38.6,45.33c11.18,11.68,21.81,21.92,35.04,31.42
c16.68,11.97,44.44,20.59,57.49,1.73c14.71-21.26,10.3-35.53-6.89-51.43c-6.18-5.71-17.99-10.39-21.08-17.64
c-0.88-2.06,0-4.47,1.93-5.6c9.07-5.33,16.8-12.5,12.81-24.65c-5.01-15.26-27.73-14.43-49.92-7.2
c-29.28,9.54-47.71,32.21-56.03,26.02c-0.4-0.3-0.91-0.68-1.25-1.41c-4.1-8.81,29.13-41.19,68.46-48.83
c2.98-0.58,40.95-7.12,60.7,12.21c4.46,4.36,6.86,9.15,7.58,13.98c2.2,14.69-12.78,26.2-14.27,27.33"/>
</g>
<g>
<path class="st0" d="M475.37,216.81c0.87-0.29,1.52-0.63,1.95-1.03c0.43-0.4,0.73-0.85,0.89-1.35s0.24-1.04,0.24-1.64
c0-0.59,0-1.24,0-1.95V189.1c0-0.71-0.02-1.35-0.05-1.95s-0.14-1.15-0.34-1.66c-0.19-0.51-0.5-0.96-0.91-1.35
c-0.42-0.38-1.01-0.72-1.78-1.01h10.29c1.63,0,3.29,0.05,4.98,0.14c1.68,0.1,3.2,0.44,4.55,1.03c1.35,0.59,2.45,1.54,3.32,2.84
c0.87,1.3,1.3,3.13,1.3,5.51c0,1.15-0.15,2.14-0.46,2.96c-0.31,0.82-0.72,1.49-1.25,2.02s-1.17,0.96-1.92,1.28
c-0.75,0.32-1.56,0.56-2.43,0.72c1.09,0.1,2.1,0.33,3.03,0.7c0.93,0.37,1.74,0.87,2.43,1.49c0.69,0.62,1.23,1.4,1.61,2.33
c0.38,0.93,0.58,2.02,0.58,3.27c0,0.93-0.12,1.87-0.36,2.81c-0.24,0.95-0.62,1.82-1.13,2.62s-1.15,1.51-1.92,2.12
c-0.77,0.61-1.68,1.04-2.74,1.3c-0.87,0.22-1.98,0.37-3.34,0.43c-1.36,0.07-3.01,0.1-4.93,0.1H475.37z M483.21,198.62
c1.28,0.06,2.6,0.1,3.95,0.1c1.35,0,2.57-0.19,3.68-0.58s2.01-1.03,2.72-1.95c0.71-0.91,1.06-2.25,1.06-4.02
c0-1.41-0.23-2.59-0.7-3.54c-0.47-0.95-1.09-1.7-1.88-2.26c-0.79-0.56-1.69-0.96-2.72-1.2s-2.1-0.36-3.22-0.36
c-0.48,0-0.96,0.02-1.44,0.05c-0.48,0.03-0.96,0.08-1.44,0.14V198.62z M483.21,200.35v14.62c0.64,0.06,1.29,0.13,1.95,0.19
c0.66,0.06,1.31,0.1,1.95,0.1c1.12,0,2.19-0.1,3.2-0.31c1.01-0.21,1.92-0.59,2.72-1.16c0.8-0.56,1.44-1.32,1.9-2.29
c0.46-0.96,0.7-2.2,0.7-3.7c0-1.57-0.26-2.85-0.77-3.85c-0.51-0.99-1.19-1.77-2.02-2.33s-1.79-0.95-2.86-1.16
c-1.07-0.21-2.19-0.31-3.34-0.31c-0.58,0-1.15,0.02-1.73,0.05C484.32,200.24,483.76,200.29,483.21,200.35z"/>
<path class="st0" d="M509.29,216.81c0.55-0.48,0.94-0.79,1.18-0.94c0.24-0.14,0.49-0.36,0.75-0.65c0.29-0.32,0.66-0.93,1.11-1.83
s0.9-1.96,1.35-3.18l10.78-27.08l10.44,27.37c0.26,0.71,0.51,1.39,0.77,2.04s0.56,1.25,0.91,1.78c0.35,0.53,0.76,1,1.23,1.42
c0.46,0.42,1.05,0.77,1.76,1.06h-11.59c0.35-0.22,0.68-0.42,0.99-0.6c0.3-0.18,0.57-0.36,0.79-0.55s0.41-0.42,0.55-0.7
s0.22-0.62,0.22-1.04c0-0.71-0.27-1.83-0.82-3.37l-1.73-4.76h-10.1l-2.07,5.2c-0.26,0.64-0.43,1.19-0.53,1.66
c-0.1,0.46-0.14,0.86-0.14,1.18c0,0.45,0.08,0.82,0.24,1.11c0.16,0.29,0.36,0.54,0.6,0.75c0.24,0.21,0.52,0.4,0.84,0.58
c0.32,0.18,0.62,0.36,0.91,0.55H509.29z M518.71,203.67h8.42l-4.09-10.92L518.71,203.67z"/>
<path class="st0" d="M548.78,183.13h11.59c-0.58,0.48-1.2,0.91-1.88,1.28c-0.67,0.37-1.11,0.84-1.3,1.42
c-0.16,0.58-0.24,1.67-0.24,3.27v10.29c0.16-0.19,0.53-0.62,1.11-1.3s1.25-1.48,2.02-2.43s1.58-1.96,2.43-3.03
c0.85-1.07,1.63-2.1,2.33-3.08s1.28-1.84,1.73-2.57c0.45-0.74,0.66-1.23,0.62-1.49c0-0.35-0.08-0.63-0.24-0.84
c-0.16-0.21-0.37-0.38-0.63-0.53s-0.54-0.29-0.84-0.43s-0.58-0.33-0.84-0.55h11.45c-0.35,0.26-0.67,0.45-0.96,0.58
c-0.29,0.13-0.5,0.22-0.62,0.29c-0.55,0.16-1.2,0.57-1.97,1.23c-0.77,0.66-1.59,1.44-2.45,2.36c-0.87,0.91-1.74,1.9-2.62,2.96
c-0.88,1.06-1.72,2.08-2.5,3.08c-0.79,0.99-1.48,1.89-2.07,2.69s-1.05,1.41-1.37,1.83l9.67,12.32c1.06,1.25,2.23,2.47,3.51,3.66
c1.28,1.19,2.79,2.09,4.52,2.69h-14.05c0.16-0.19,0.38-0.38,0.65-0.55c0.27-0.18,0.53-0.37,0.77-0.58
c0.24-0.21,0.45-0.43,0.63-0.67c0.18-0.24,0.26-0.5,0.26-0.79c0-0.16-0.02-0.31-0.05-0.46s-0.06-0.25-0.1-0.31
c-0.1-0.26-0.26-0.53-0.5-0.82c-0.24-0.29-0.54-0.66-0.89-1.11l-9-11.5v10.82c0,0.87,0.02,1.59,0.07,2.17
c0.05,0.58,0.15,1.06,0.31,1.44c0.13,0.32,0.27,0.59,0.43,0.79c0.16,0.21,0.35,0.39,0.58,0.55s0.46,0.31,0.7,0.46
c0.24,0.14,0.5,0.33,0.79,0.55h-11.02c0.38-0.32,0.77-0.57,1.15-0.75c0.38-0.18,0.75-0.43,1.08-0.77c0.34-0.34,0.61-0.83,0.82-1.49
c0.21-0.66,0.31-1.64,0.31-2.96V189.1c0-1.67-0.08-2.79-0.24-3.37c-0.13-0.38-0.3-0.7-0.5-0.94c-0.21-0.24-0.46-0.45-0.75-0.62
c-0.29-0.18-0.59-0.34-0.91-0.48S549.13,183.36,548.78,183.13z"/>
<path class="st0" d="M589.91,216.81c0.51-0.26,0.95-0.5,1.3-0.75c0.35-0.24,0.63-0.55,0.84-0.94c0.21-0.38,0.35-0.91,0.43-1.56
s0.12-1.55,0.12-2.67V189c0-1.06-0.04-1.92-0.12-2.6s-0.22-1.21-0.43-1.61c-0.21-0.4-0.49-0.72-0.84-0.96
c-0.35-0.24-0.79-0.47-1.3-0.7h23.91c0.45,0,0.75,0.27,0.89,0.82c0.14,0.55,0.23,1.2,0.26,1.95c0.03,0.75,0.02,1.54-0.05,2.36
c-0.06,0.82-0.1,1.51-0.1,2.09c-0.48-1.15-0.96-2.06-1.44-2.72c-0.48-0.66-1.03-1.14-1.66-1.44c-0.62-0.3-1.34-0.49-2.14-0.55
c-0.8-0.06-1.76-0.1-2.89-0.1h-9.24v12.75h7.41c0.93,0,1.69,0,2.28,0s1.1-0.04,1.52-0.12c0.42-0.08,0.8-0.23,1.15-0.46
c0.35-0.22,0.77-0.56,1.25-1.01v5.05c-0.48-0.45-0.9-0.79-1.25-1.01c-0.35-0.22-0.74-0.38-1.15-0.48c-0.42-0.1-0.91-0.14-1.49-0.14
s-1.35,0-2.31,0h-7.41v10.63c0,1.44,0.08,2.37,0.24,2.79c0.1,0.22,0.24,0.41,0.43,0.55s0.41,0.25,0.65,0.31
c0.24,0.06,0.5,0.1,0.77,0.12c0.27,0.02,0.51,0.02,0.7,0.02h5.72c0.93,0,1.84-0.03,2.72-0.1c0.88-0.06,1.58-0.18,2.09-0.34
c0.54-0.16,1.06-0.45,1.54-0.87c0.48-0.42,0.93-0.9,1.35-1.44c0.42-0.54,0.82-1.14,1.2-1.78c0.39-0.64,0.77-1.28,1.16-1.92
c-0.1,0.77-0.19,1.66-0.26,2.67c-0.08,1.01-0.19,1.96-0.34,2.84c-0.14,0.88-0.34,1.64-0.6,2.26c-0.26,0.63-0.59,0.94-1.01,0.94
H589.91z"/>
<path class="st0" d="M631.23,210.84V189.1c0-1.06-0.03-1.91-0.1-2.55c-0.06-0.64-0.2-1.17-0.41-1.59
c-0.21-0.42-0.53-0.75-0.96-1.01s-1.02-0.53-1.76-0.82h11.06c1.79,0,3.47,0.12,5.03,0.36s2.91,0.7,4.07,1.37
c1.15,0.67,2.07,1.6,2.74,2.79c0.67,1.19,1.01,2.73,1.01,4.62c0,1.48-0.2,2.75-0.6,3.82c-0.4,1.07-0.95,1.98-1.64,2.72
c-0.69,0.74-1.49,1.33-2.41,1.78s-1.87,0.77-2.86,0.96l6.3,8.66c0.87,1.22,1.64,2.21,2.31,2.96c0.67,0.75,1.27,1.36,1.78,1.8
c0.51,0.45,0.96,0.8,1.35,1.06s0.72,0.51,1.01,0.77h-6.54l-11.06-15.06c-1.19-0.16-2.28-0.4-3.27-0.72v9.81
c0.06,0.87,0.13,1.61,0.19,2.24c0.06,0.63,0.19,1.16,0.38,1.61s0.49,0.84,0.89,1.18c0.4,0.34,0.95,0.65,1.66,0.94h-11.4
c0.77-0.38,1.36-0.78,1.78-1.18c0.42-0.4,0.74-0.84,0.96-1.32c0.22-0.48,0.36-1,0.41-1.56
C631.21,212.18,631.23,211.55,631.23,210.84z M636.28,199.49c1.31,0.19,2.53,0.29,3.66,0.29c0.96,0,1.85-0.1,2.67-0.31
c0.82-0.21,1.53-0.58,2.14-1.11s1.08-1.25,1.42-2.17c0.34-0.91,0.52-2.08,0.55-3.49c0.03-1.51-0.22-2.79-0.77-3.85
c-0.55-1.06-1.3-1.91-2.26-2.55c-0.96-0.64-2.08-1.07-3.34-1.28c-1.27-0.21-2.62-0.22-4.06-0.02V199.49z"/>
<path class="st0" d="M661.97,183.13h12.31c-0.35,0.29-0.71,0.55-1.06,0.77c-0.35,0.22-0.67,0.44-0.96,0.65
c-0.29,0.21-0.52,0.43-0.7,0.67c-0.18,0.24-0.26,0.54-0.26,0.89s0.09,0.8,0.26,1.35c0.18,0.55,0.47,1.22,0.89,2.02l5.1,9.76
l3.9-9.33c0.32-0.77,0.62-1.52,0.89-2.24c0.27-0.72,0.41-1.34,0.41-1.85c0-0.38-0.09-0.68-0.26-0.89c-0.18-0.21-0.4-0.4-0.67-0.58
c-0.27-0.18-0.58-0.35-0.91-0.53c-0.34-0.18-0.67-0.41-0.99-0.7h9.76c-0.48,0.39-0.91,0.64-1.27,0.77
c-0.37,0.13-0.76,0.36-1.18,0.7s-0.88,0.87-1.39,1.61c-0.51,0.74-1.14,1.91-1.88,3.51l-5.2,12.8v8.47c0,2.05,0.22,3.4,0.67,4.04
c0.16,0.23,0.36,0.41,0.6,0.55s0.5,0.26,0.77,0.36c0.27,0.1,0.55,0.21,0.84,0.34c0.29,0.13,0.56,0.31,0.82,0.53H670.2
c0.29-0.22,0.59-0.42,0.91-0.6c0.32-0.18,0.64-0.34,0.96-0.5c0.32-0.16,0.6-0.31,0.84-0.46c0.24-0.14,0.41-0.31,0.5-0.5
c0.35-0.61,0.53-1.86,0.53-3.75V203l-7.26-14.09c-0.38-0.8-0.71-1.45-0.99-1.95c-0.27-0.5-0.57-0.94-0.89-1.32s-0.7-0.77-1.13-1.15
C663.24,184.09,662.68,183.65,661.97,183.13z"/>
</g>
<g>
</g>
<g>
</g>
<g>
</g>
<g>
</g>
<g>
</g>
<g>
</g>
</svg>