<?xml version="1.0" encoding="utf-8"?>
<!-- Generator: Adobe Illustrator 30.2.1, SVG Export Plug-In . SVG Version: 9.03 Build 0)  -->
<svg version="1.1" id="Layer_1" xmlns="http://www.w3.org/2000/svg" xmlns:xlink="http://www.w3.org/1999/xlink" x="0px" y="0px"
viewBox="0 0 864 864" style="enable-background:new 0 0 864 864;" xml:space="preserve">
<style type="text/css">
.st0{fill:#F7EDD1;}
.st1{opacity:0.25;}
.st2{fill:#815E4A;}
</style>
<rect class="st0" width="864" height="864"/>
<g class="st1">
<path class="st2" d="M0,567.42V288.98c12.14-2.48,24.47-4.33,36.93-3.82c1.94,0.08,5.42,1.02,7.12,0.86
c2.88-0.28,6.45-2.49,10.12-2.08c3.21,0.35,14.5,5.72,17.84,7.5c30.84,16.41,55.82,64.52,63.64,97.52
c13.91,58.73-7.36,123.77-59.31,156.28C53.92,559.25,26.59,567.81,0,567.42z"/>
<path class="st2" d="M864,289.41v278.02c-45.42-0.17-90.54-26.63-115.77-63.74c-40.98-60.27-28.16-122.76,26.13-168.28
C799.82,314.06,831.54,297.02,864,289.41z"/>
<path class="st2" d="M148.08,864H0V723.94c5.86-0.47,11.11-2.77,16.79-4.09c14.13-3.28,30.98-5.23,45.43-3.93
c56.96,5.13,84.42,76.9,86.29,126.33C148.79,849.53,148.22,856.77,148.08,864z"/>
<path class="st2" d="M722.25,0H864v148.5c-39.32,0.89-82.43-9.26-112.84-35.02c-24.75-20.97-38.43-53.28-35.24-85.84
C716.84,18.25,719.24,8.88,722.25,0z"/>
<path class="st2" d="M148.08,0c-0.79,4.49-1.07,9.08-1.81,13.59c-5.15,31.58-20.27,66.05-42.06,89.57
C77.47,132.03,39.18,147.32,0,148.5V0H148.08z"/>
<path class="st2" d="M540.42,864H331.17c4.07-35.27,32.62-62.35,64.14-75.29c27.13-11.14,50.6-20.55,80.66-14.88
c40.58,7.66,70.58,39.3,65.94,82.16C541.63,858.61,540.99,861.43,540.42,864z"/>
<path class="st2" d="M540.42,0c-6.59,31.15-29.11,59.7-56.67,75.17c-34.51,19.37-81.5,24.67-115.42,1.37
C343.85,59.73,328.15,30.05,331.17,0H540.42z"/>
<path class="st2" d="M864,723.94V864H722.25c8.83-26.26,23.83-51,41.35-72.34C789.28,760.39,823.83,733.05,864,723.94z"/>
<path class="st2" d="M382.91,278.27c4.66-1.95,15.8-5.16,21.08-5.69c3.93-0.39,8.64-0.11,12.5-0.57c4.78-0.57,10.03-2.2,14.88-2.43
c21.54-1,59.58,23.81,75.31,38.17c20.09,18.33,31.6,47.35,39.23,72.98c10.24,34.39,5.48,76.64-11.75,108.08
c-9.92,18.11-32.32,35.8-48.82,48.22c-29.91,22.53-70.51,36.69-107.35,23c-9.36-3.48-19.31-5.53-28.42-9.97
c-36.27-17.65-62.61-56.71-71.71-95.36c-14.93-63.4,17.03-140.08,77.48-167.49C364.63,283.01,374.35,281.85,382.91,278.27z"/>
<path class="st2" d="M683.35,549.4c15.44-1.22,27.75,5.32,40.39,13.37c36.45,23.21,41.07,68.2,42.81,107.8
c2.01,45.79,1.54,92.83-35.43,125.31c-11.29,9.91-24.67,22.61-38.4,28.67c-6.63,2.93-15.64,5.78-22.68,7.69
c-18.26,4.96-30.11,3.24-47.94-1.6c-14.8-4.02-24.6-12.41-36.49-21.31c-8.95-6.7-17.88-25.63-21.56-36.24
c-9.78-28.19-9.01-59.18-6.74-88.6c2.2-28.52,8.13-59.4,25.99-82.44c15.74-20.31,48.5-47.69,75.03-49.42
c2.59-0.17,5.42,0.26,7.99-0.02C671.69,552.01,677.48,549.87,683.35,549.4z"/>
<path class="st2" d="M282.57,561.22c51.22-4.01,78.93,36.87,88.58,81.61c11.26,52.23-1.73,101.53-29.84,145.87
c-20.56,32.43-49.22,51.09-89.1,42.68c-45.87-9.68-88.27-51.65-101.05-96.38c-14.48-50.65,7.35-115.77,50.8-145.99
c14.9-10.36,35.48-17.99,53.13-21.97C264.07,565.02,273.23,561.95,282.57,561.22z"/>
<path class="st2" d="M227.7,68.44c5.28-0.52,13.19,0.38,18.12,2.36c3.8,1.52,8.81,5.46,12.61,5.95c6.83,0.88,10.6,0.54,17.34,3.33
c24.89,10.32,47.48,40.51,53.93,66.31c9.8,39.2,2.11,82.51-20.37,115.91c-19.14,28.43-45.46,46.55-80.09,50.69
c-51.96,6.21-104.88-5.14-127.09-57.6c-17.62-41.61,1.32-100.78,27.01-135.71c13.18-17.93,33.54-35.15,54.67-42.79
C197.73,71.86,213.16,69.88,227.7,68.44z"/>
<path class="st2" d="M546.89,293.06c-44.36-44.47-46.89-122.02-16.25-174.8c14.91-25.69,42.44-44.98,73.27-43.17
c10.51,0.62,21.11,0.88,31.45,3.15c4.36,0.96,7.93,2,12.38,2.81c8.14,1.48,13.73,3.2,20.48,8.21c3.8,2.82,6.1,4.25,10.12,6.75
c13.93,8.65,32.05,33.5,37.59,48.89c7.48,20.8,10.71,35.27,9.71,57.82c-1.35,30.63-14.07,58.42-32.33,82.42
c-21.36,28.09-49.74,45.11-86.32,38.29c-3.13-0.58-6.95-2.05-9.88-2.36c-1.96-0.21-3.49,0.55-5.25,0.2
c-2.61-0.52-6.86-2.53-9.42-3.68C569.55,311.85,556.87,303.06,546.89,293.06z"/>
</g>
<g>
</g>
<g>
</g>
<g>
</g>
<g>
</g>
<g>
</g>
<g>
</g>
</svg>